<?xml version="1.0" encoding="utf-8"?>
<!-- Generator: Adobe Illustrator 16.0.0, SVG Export Plug-In . SVG Version: 6.00 Build 0)  -->
<!DOCTYPE svg PUBLIC "-//W3C//DTD SVG 1.1//EN" "http://www.w3.org/Graphics/SVG/1.1/DTD/svg11.dtd">
<svg version="1.1" id="Layer_1" xmlns="http://www.w3.org/2000/svg" xmlns:xlink="http://www.w3.org/1999/xlink" x="0px" y="0px"
	 width="324.207px" height="370.094px" viewBox="0 0 324.207 370.094" enable-background="new 0 0 324.207 370.094"
	 xml:space="preserve">
<path fill-rule="evenodd" clip-rule="evenodd" fill="#2E3B5D" d="M0.051,184.832c0-28.645,0.036-57.289-0.033-85.933
	c-0.012-5.027,2.068-8.503,6.375-10.981C56.156,59.275,105.901,30.602,155.63,1.902c4.381-2.528,8.53-2.543,12.93,0
	c36.661,21.179,73.357,42.297,110.043,63.438c13.129,7.565,26.239,15.166,39.39,22.695c4.244,2.43,6.206,5.933,6.201,10.848
	c-0.046,57.289-0.055,114.578,0.013,171.866c0.008,5.272-2.002,8.937-6.58,11.566c-31.962,18.353-63.872,36.794-95.805,55.195
	c-17.749,10.228-35.538,20.383-53.248,30.674c-4.501,2.617-8.673,2.498-13.12-0.072c-33.229-19.211-66.493-38.359-99.748-57.524
	c-16.296-9.391-32.57-18.823-48.912-28.135c-4.631-2.639-6.815-6.277-6.794-11.688C0.108,242.119,0.051,213.476,0.051,184.832z
	 M313.292,185.236c0.002,0,0.005,0,0.007,0c0-28.192-0.021-56.384,0.044-84.577c0.006-1.994-0.561-3.097-2.338-4.118
	c-48.666-27.968-97.302-55.988-145.9-84.078c-2.153-1.244-3.661-1.403-5.907-0.089c-18.673,10.914-37.442,21.667-56.184,32.467
	C72.99,62.146,42.972,79.46,12.92,96.715c-1.533,0.88-2.042,1.837-2.042,3.586c0.049,56.08,0.062,112.159-0.023,168.238
	c-0.003,2.685,0.743,4.144,3.12,5.509c48.812,28.021,97.572,56.134,146.316,84.271c1.385,0.8,2.372,0.724,3.71-0.052
	c17.327-10.051,34.686-20.048,52.043-30.047c31.743-18.289,63.482-36.583,95.257-54.816c1.545-0.887,2.034-1.853,2.03-3.594
	C313.275,241.619,313.292,213.428,313.292,185.236z"/>
<path fill-rule="evenodd" clip-rule="evenodd" fill="#FFFFFF" d="M313.292,185.236c0,28.192-0.018,56.383,0.039,84.575
	c0.004,1.741-0.485,2.707-2.03,3.594c-31.774,18.233-63.514,36.527-95.257,54.816c-17.357,9.999-34.716,19.996-52.043,30.047
	c-1.338,0.775-2.325,0.852-3.71,0.052c-48.745-28.138-97.504-56.251-146.316-84.271c-2.377-1.365-3.124-2.824-3.12-5.509
	c0.084-56.079,0.072-112.158,0.023-168.238c0-1.749,0.509-2.706,2.042-3.586c30.052-17.255,60.07-34.569,90.094-51.873
	c18.741-10.8,37.51-21.553,56.184-32.467c2.246-1.314,3.754-1.155,5.907,0.089c48.599,28.089,97.234,56.109,145.9,84.078
	c1.777,1.021,2.344,2.124,2.338,4.118c-0.064,28.192-0.044,56.385-0.044,84.577C313.297,185.236,313.294,185.236,313.292,185.236z
	 M20.108,184.899c-0.003,0-0.005,0-0.008,0c0,25.676,0.024,51.351-0.03,77.026c-0.007,3.402,1.266,5.712,4.248,7.428
	c44.562,25.635,89.098,51.311,133.615,77.024c2.991,1.727,5.652,1.553,8.572-0.131c44.391-25.622,88.799-51.211,133.229-76.764
	c3.017-1.735,4.419-4.028,4.416-7.571c-0.058-51.275-0.055-102.551-0.008-153.826c0.004-3.448-1.354-5.755-4.323-7.397
	c-4.864-2.691-9.656-5.511-14.472-8.286c-39.592-22.816-79.189-45.619-118.754-68.482c-3.109-1.796-5.856-1.826-8.977,0.002
	c-12.024,7.049-24.134,13.951-36.21,20.91C89.073,63.466,56.75,82.115,24.397,100.712c-2.939,1.69-4.335,3.931-4.326,7.388
	C20.139,133.699,20.108,159.299,20.108,184.899z"/>
<path fill-rule="evenodd" clip-rule="evenodd" fill="#FFFFFF" d="M291.056,185.122c-2.214,0-4.188,0-6.161,0
	c-12.722,0-25.443-0.042-38.166,0.043c-2.021,0.013-2.748-0.416-2.736-2.61c0.09-17.368,0.049-34.737,0.049-52.106
	c0-0.729,0-1.458,0-2.558c1.593,0.625,2.77,1.086,4.236,1.661c2.104-4.813,4.19-9.589,6.406-14.658
	c-1.146-0.523-2.145-0.998-3.158-1.44c-29.314-12.779-58.628-25.563-87.964-38.293c-0.787-0.34-1.964-0.411-2.73-0.079
	c-29.683,12.879-59.34,25.821-88.999,38.759c-0.688,0.3-1.348,0.663-2.271,1.121c2.12,4.861,4.201,9.633,6.34,14.54
	c1.419-0.51,2.662-0.957,4.161-1.496c0.045,1.021,0.105,1.758,0.105,2.494c0.007,17.293-0.034,34.586,0.057,51.878
	c0.011,2.195-0.581,2.808-2.782,2.793c-13.94-0.098-27.882-0.05-41.822-0.05c-0.752,0-1.504,0-2.492,0
	c-0.053-0.977-0.138-1.787-0.138-2.595c-0.003-22.93,0.03-45.86-0.04-68.79c-0.007-2.297,0.831-3.549,2.789-4.676
	c39.414-22.656,78.789-45.376,118.171-68.086c2.043-1.179,4.135-2.287,6.112-3.57c1.484-0.965,2.72-0.827,4.21,0.035
	c28.018,16.199,56.055,32.358,84.092,48.524c13.524,7.798,27.042,15.607,40.592,23.36c1.545,0.884,2.336,1.884,2.332,3.763
	c-0.047,23.31-0.026,46.622-0.031,69.932C291.219,183.613,291.13,184.207,291.056,185.122z"/>
<path fill-rule="evenodd" clip-rule="evenodd" fill="#FFFFFF" d="M211.863,227.337c2.233-3.795,3.037-4.109,8.105-3.174
	c-0.174,0.921-0.312,1.853-0.531,2.766c-1.816,7.545-3.648,15.087-5.471,22.632c-0.106,0.443-0.294,0.914-0.235,1.343
	c0.127,0.924,0.391,1.831,0.598,2.744c0.854-0.354,1.909-0.497,2.525-1.095c3.88-3.759,6.754-8.217,8.728-13.248
	c1.851-4.713,4.018-9.251,7.852-12.706c1.277-1.151,2.765-2.203,4.34-2.866c3.849-1.622,6.457-0.836,9.001,2.355
	c2.172-2.462,3.771-2.833,9.159-1.941c-2.404,9.76-4.805,19.493-7.368,29.899c1.038-0.791,1.528-1.099,1.939-1.487
	c4.936-4.652,8.98-9.854,11.112-16.46c1.688-5.233,5.322-8.976,10.18-11.52c3.099-1.626,6.354-2.034,9.749-1.156
	c3.327,0.861,5.089,3.496,4.488,6.883c-0.725,4.09-3.112,7.211-6.604,9.155c-2.949,1.643-6.242,2.736-9.482,3.76
	c-1.708,0.538-2.328,1.218-2.182,3.011c0.457,5.582,3.976,8.214,9.377,6.803c3.119-0.814,5.734-2.488,7.666-5.075
	c1.411-1.889,2.561-3.978,4.032-5.813c0.479-0.599,1.608-0.677,2.44-0.991c-0.003,0.778,0.291,1.735-0.057,2.303
	c-2.137,3.504-4.148,7.138-6.717,10.314c-4.195,5.187-9.866,6.949-16.387,5.552c-3.849-0.823-6.562-3.07-7.66-7.016
	c-0.402-1.44-0.917-2.848-1.525-4.715c-0.973,1.133-1.662,2.001-2.42,2.805c-1.826,1.937-3.467,4.144-5.585,5.691
	c-2.955,2.159-4.113,4.967-4.879,8.379c-0.942,4.204-2.076,8.457-3.853,12.359c-2.214,4.867-7.944,6.953-12.746,5.345
	c-4.119-1.382-5.751-5.259-3.396-8.896c1.381-2.131,3.336-3.924,5.196-5.699c1.368-1.306,2.882-2.559,4.54-3.443
	c3.678-1.964,4.415-5.301,4.797-9.743c-3.148,3.762-6.644,5.875-11.021,5.232c-5.227-0.766-5.496-5.171-6.118-9.687
	c-1.776,2.125-3.11,4.183-4.894,5.722c-1.716,1.481-3.763,2.909-5.902,3.493c-2.907,0.792-4.341-0.418-5.194-3.356
	c-0.357-1.23-0.564-2.505-0.94-4.216c-1.148,1.509-2.071,2.743-3.018,3.959c-2.102,2.695-4.888,4.034-8.285,4.156
	c-3.674,0.132-5.478-1.076-6.669-4.592c-0.433-1.276-0.701-2.609-1.068-4.003c-2.036,2.082-3.947,4.082-5.907,6.031
	c-2.492,2.479-5.605,2.57-8.752,1.949c-2.928-0.577-4.352-2.355-3.8-5.512c0.544-3.094,1.66-6.142,2.906-9.047
	c1.253-2.921,0.613-5.279-1.251-7.799c-0.365,0.403-0.695,0.674-0.911,1.019c-3.021,4.845-5.8,9.863-9.132,14.482
	c-1.81,2.507-4.309,4.743-6.948,6.371c-3.457,2.134-6.197,0.664-7.211-3.242c-0.286-1.099-0.457-2.228-0.776-3.819
	c-0.984,1.319-1.761,2.375-2.551,3.423c-2.41,3.196-5.598,4.861-9.624,4.775c-2.693-0.058-4.618-1.321-5.682-3.84
	c-1.291-3.055-1.32-6.204-0.828-9.426c1.01-6.611,3.528-12.578,7.62-17.851c0.921-1.188,2.075-2.246,3.274-3.163
	c5.143-3.927,9.289-3.29,13.283,1.945c2.013-3.854,3.087-4.304,8.002-3.197c-2.266,9.751-5.729,19.289-6.215,29.381
	c0.23,0.15,0.459,0.299,0.689,0.45c0.782-0.479,1.724-0.813,2.323-1.461c4.954-5.355,9.174-11.176,11.281-18.299
	c0.36-1.217,0.638-2.272-0.534-3.313c-0.432-0.384-0.577-1.404-0.443-2.049c0.389-1.859,0.963-3.681,1.519-5.5
	c0.125-0.406,0.536-1.091,0.711-1.06c2.349,0.417,4.688,0.901,6.992,1.515c0.166,0.045,0.146,1.257-0.004,1.873
	c-0.138,0.567-0.544,1.077-0.876,1.585c-1.899,2.908-1.849,3.26,0.843,5.385c5.989,4.729,6.723,8.675,2.924,15.192
	c-0.604,1.034-1.035,2.22-1.284,3.391c-0.132,0.622,0.09,1.647,0.533,1.973c0.475,0.35,1.525,0.338,2.094,0.043
	c0.987-0.516,2.058-1.205,2.633-2.111c2.551-4.03,5.276-8.006,7.292-12.304c2.087-4.45,3.947-9.031,7.771-12.204
	c2.013-1.67,4.639-2.923,7.187-3.545C207.925,222.336,210.523,223.966,211.863,227.337z M148.341,234.643
	c-0.083-1.056-0.095-1.514-0.158-1.966c-0.233-1.656-0.296-3.474-2.298-4.07c-1.937-0.575-3.148,0.598-4.197,2.015
	c-3.962,5.35-6.064,11.416-6.466,17.994c-0.092,1.518,1.058,3.109,1.637,4.666c1.505-0.72,3.417-1.078,4.445-2.226
	C145.606,246.255,147.463,240.337,148.341,234.643z M231.772,249.407c0.458,0.938,0.791,2.906,1.927,3.649
	c1.797,1.176,3.122-0.75,4.397-1.882c0.451-0.401,0.852-0.877,1.205-1.367c3.359-4.681,5.226-9.949,5.849-15.63
	c0.143-1.289-0.283-2.721-0.749-3.974c-0.66-1.776-2.271-2.273-3.892-1.303c-0.765,0.458-1.463,1.112-2.016,1.814
	C234.341,235.989,232.917,242.265,231.772,249.407z M195.897,249.963c0.343,0.652,0.781,2.167,1.773,3.086
	c0.439,0.406,2.287-0.066,3.002-0.7c5.965-5.278,8.242-12.231,8.323-19.945c0.014-1.27-1.181-3.094-2.328-3.707
	c-1.671-0.896-3.245,0.516-4.209,1.907C198.608,236.167,196.586,242.405,195.897,249.963z M267.921,240.865
	c5.152-1.887,8.932-4.461,10.92-9.016c0.46-1.053-0.069-2.537-0.143-3.823c-1.207,0.17-2.585,0.021-3.588,0.564
	C270.478,231.099,269.867,236,267.921,240.865z M238.266,266.596c-0.132-0.074-0.265-0.149-0.396-0.223
	c-1.296,1.155-2.778,2.165-3.84,3.508c-1.24,1.573-2.335,3.35-3.071,5.205c-0.501,1.261-0.656,3.043,1.316,3.55
	c1.781,0.458,2.762-0.804,3.213-2.221C236.52,273.176,237.353,269.873,238.266,266.596z"/>
<path fill-rule="evenodd" clip-rule="evenodd" fill="#FFFFFF" d="M117.497,247.603c2.665,1.029,4.987,1.929,7.464,2.886
	c-0.613,1.571-1.023,2.959-1.672,4.224c-2.949,5.754-3.782,11.945-4.365,18.294c-0.364,3.958-1.523,7.88-2.657,11.721
	c-1.26,4.266-4.529,6.513-8.822,6.812c-3.234,0.227-6.591,0.175-9.748-0.472c-2.093-0.429-4.169-1.853-5.815-3.321
	c-2.076-1.852-3.704-4.202-5.721-6.567c3.09,0,6.045-0.026,8.999,0.042c0.299,0.007,0.675,0.542,0.862,0.911
	c1.862,3.651,6.792,5.495,10.453,3.674c1.066-0.529,2.301-1.601,2.588-2.66c0.972-3.573,1.552-7.252,2.347-11.219
	c-2.043,0.917-3.603,1.935-5.307,2.326c-7.101,1.632-13.902-1.895-16.882-9.251c-1.633-4.034-2.289-8.472-3.287-12.749
	c-0.299-1.283-0.261-2.644-0.363-3.817c-2.541,2.897-4.872,5.874-7.542,8.509c-2.338,2.305-5.359,3.069-8.671,2.436
	c-3.102-0.593-5.017-2.421-5.78-5.447c-0.48-1.904-0.867-3.831-1.403-6.231c-1.719,2.201-3.115,4.126-4.651,5.931
	c-4.301,5.053-9.865,6.729-16.242,5.542c-5.78-1.074-9.05-5.423-9.162-12.479c-0.133-8.406,3.1-15.436,9.722-20.737
	c3.028-2.425,6.597-3.449,10.461-3.279c5.848,0.258,8.588,4.737,6.064,10.038c-2.154,4.525-6.008,7.189-10.579,8.864
	c-1.851,0.678-3.792,1.142-5.725,1.554c-1.389,0.297-1.763,0.939-1.326,2.253c0.262,0.789,0.358,1.632,0.545,2.446
	c1.044,4.53,3.348,6.132,7.959,5.022c7.368-1.771,11.802-6.855,13.784-13.86c1.61-5.692,2.088-11.712,3.767-17.38
	c1.698-5.73,4.043-11.304,6.535-16.749c1.069-2.336,3.046-4.359,4.935-6.19c2.412-2.339,5.46-2.602,8.509-1.304
	c2.928,1.247,3.405,3.921,3.322,6.693c-0.168,5.619-2.274,10.686-4.755,15.604c-2.972,5.894-6.808,11.194-11.523,15.809
	c-1.924,1.884-2.954,3.92-2.819,6.659c0.101,2.043-0.114,4.11-0.276,6.158c-0.177,2.228,0.294,4.203,2.423,5.225
	c2.09,1.003,4.117,0.074,5.332-1.493c3.531-4.563,7.419-8.77,8.026-15.18c0.934-9.877,3.946-19.293,9.933-27.385
	c2.27-3.066,5.325-5.574,8.162-8.187c0.913-0.842,2.228-1.317,3.432-1.765c8.985-3.341,15.949,0.67,17.4,10.124
	c1.339,8.723-0.939,16.773-5.062,24.378c-0.273,0.503-1.409,0.541-2.146,0.782c-0.052,0.019-0.135-0.06-0.205-0.088
	c-6.36-2.53-6.251-2.487-3.695-8.865c1.493-3.723,2.888-7.543,3.716-11.449c0.479-2.26,0.093-4.868-0.522-7.154
	c-0.901-3.352-3.491-4.411-6.588-2.825c-1.495,0.766-2.844,2.052-3.906,3.383c-4.075,5.103-6.055,11.213-7.963,17.333
	c-3.356,10.771-4.323,21.782-2.871,32.947c0.304,2.341,1.267,4.75,2.493,6.785c2.653,4.406,8.474,4.762,11.535,0.622
	c1.772-2.397,2.963-5.289,4.083-8.091C115.531,254.305,116.385,251.064,117.497,247.603z M72.291,232.69
	c0.829-0.496,1.074-0.561,1.182-0.719c4.704-6.961,9.04-14.123,11.36-22.285c0.536-1.886,0.741-3.881,0.913-5.842
	c0.048-0.549-0.513-1.597-0.88-1.638c-0.609-0.067-1.343,0.419-1.918,0.823c-0.335,0.237-0.454,0.774-0.69,1.164
	c-3.71,6.151-5.371,13.067-7.403,19.843C74.053,226.71,73.269,229.388,72.291,232.69z M40.753,240.521
	c5.346-1.785,9.288-4.535,11.343-9.441c0.354-0.847,0.097-2.767-0.396-2.978c-0.989-0.422-2.65-0.45-3.48,0.139
	C44.167,231.119,42.224,235.397,40.753,240.521z"/>
<path fill-rule="evenodd" clip-rule="evenodd" fill="#FFFFFF" d="M101.413,140.477c0-3.669-0.045-7.007,0.057-10.34
	c0.013-0.423,0.741-1.034,1.248-1.183c0.702-0.207,1.508-0.06,2.27-0.061c38.235,0,76.47-0.001,114.706-0.001
	c3.114,0,3.118,0,3.12,3.102c0.001,2.285-0.045,4.571,0.012,6.854c0.027,1.151-0.326,1.722-1.557,1.622
	c-0.755-0.061-1.521,0.005-2.284,0.005c-38.159,0.001-76.318,0.001-114.478,0.001C103.605,140.477,102.703,140.477,101.413,140.477z
	"/>
<path fill-rule="evenodd" clip-rule="evenodd" fill="#FFFFFF" d="M161.88,185.122c-19.274,0-38.55-0.031-57.825,0.046
	c-2.071,0.009-2.867-0.488-2.701-2.643c0.181-2.349,0.118-4.724,0.022-7.082c-0.062-1.523,0.543-2.09,1.998-1.93
	c0.375,0.042,0.761,0.004,1.142,0.004c38.398,0,76.796,0,115.193,0c3.1,0,3.1,0.005,3.101,3.068
	c0.001,2.057-0.123,4.124,0.032,6.169c0.148,1.94-0.582,2.415-2.451,2.408c-18.133-0.066-36.265-0.041-54.397-0.042
	C164.624,185.122,163.252,185.122,161.88,185.122z"/>
<path fill-rule="evenodd" clip-rule="evenodd" fill="#FFFFFF" d="M76.023,117.355c5.012-2.182,9.747-4.242,14.479-6.304
	c23.239-10.125,46.483-20.24,69.704-30.409c1.388-0.608,2.505-0.567,3.863,0.026c27.206,11.882,54.422,23.738,81.663,35.542
	c1.895,0.821,2.774,1.671,1.429,3.613c-0.213,0.307-0.368,0.677-0.459,1.042c-0.49,1.944-1.412,2.217-3.29,1.377
	c-10.563-4.723-21.183-9.315-31.788-13.939c-15.98-6.966-31.96-13.938-47.973-20.828c-0.902-0.388-2.263-0.392-3.163-0.002
	c-26.401,11.445-52.771,22.963-79.144,34.472c-2.826,1.233-2.825,1.245-4.042-1.54C76.911,119.507,76.544,118.599,76.023,117.355z"
	/>
<path fill-rule="evenodd" clip-rule="evenodd" fill="#FFFFFF" d="M162.112,145.401c19.267,0.002,38.535,0.036,57.802-0.045
	c2.257-0.009,3.035,0.518,2.964,2.916c-0.187,6.27-0.066,6.302-6.378,6.302c-37.242,0.006-74.482,0-111.723-0.007
	c-3.373,0-3.373-0.014-3.382-3.322c-0.017-5.844-0.017-5.844,5.885-5.844C125.556,145.401,143.833,145.401,162.112,145.401z"/>
<path fill-rule="evenodd" clip-rule="evenodd" fill="#FFFFFF" d="M162.344,159.439c19.197,0,38.395,0.041,57.589-0.055
	c2.328-0.012,2.999,0.618,2.941,2.929c-0.159,6.288-0.061,6.29-6.372,6.29c-37.404,0.001-74.807-0.021-112.21,0.053
	c-2.32,0.005-2.994-0.609-2.946-2.934c0.129-6.28,0.023-6.282,6.378-6.282C125.931,159.439,144.137,159.439,162.344,159.439z"/>
<path fill-rule="evenodd" clip-rule="evenodd" fill="#2E3B5D" d="M148.341,234.643c-0.878,5.694-2.735,11.612-7.037,16.413
	c-1.028,1.147-2.94,1.506-4.445,2.226c-0.579-1.557-1.729-3.148-1.637-4.666c0.402-6.578,2.503-12.645,6.466-17.994
	c1.049-1.417,2.261-2.59,4.197-2.015c2.002,0.597,2.065,2.414,2.298,4.07C148.247,233.129,148.258,233.587,148.341,234.643z"/>
<path fill-rule="evenodd" clip-rule="evenodd" fill="#2E3B5D" d="M231.772,249.407c1.145-7.143,2.569-13.418,6.722-18.691
	c0.553-0.702,1.251-1.356,2.016-1.814c1.621-0.971,3.231-0.474,3.892,1.303c0.466,1.253,0.892,2.685,0.749,3.974
	c-0.623,5.681-2.489,10.949-5.849,15.63c-0.354,0.49-0.754,0.966-1.205,1.367c-1.275,1.132-2.601,3.058-4.397,1.882
	C232.563,252.313,232.23,250.345,231.772,249.407z"/>
<path fill-rule="evenodd" clip-rule="evenodd" fill="#2E3B5D" d="M195.897,249.963c0.689-7.558,2.711-13.796,6.562-19.359
	c0.964-1.392,2.538-2.803,4.209-1.907c1.147,0.613,2.342,2.438,2.328,3.707c-0.081,7.714-2.358,14.667-8.323,19.945
	c-0.715,0.634-2.563,1.106-3.002,0.7C196.678,252.13,196.24,250.615,195.897,249.963z"/>
<path fill-rule="evenodd" clip-rule="evenodd" fill="#2E3B5D" d="M267.921,240.865c1.945-4.865,2.557-9.767,7.189-12.274
	c1.003-0.543,2.381-0.395,3.588-0.564c0.073,1.286,0.603,2.771,0.143,3.823C276.853,236.404,273.074,238.979,267.921,240.865z"/>
<path fill-rule="evenodd" clip-rule="evenodd" fill="#2E3B5D" d="M238.266,266.596c-0.913,3.277-1.746,6.58-2.778,9.819
	c-0.451,1.417-1.432,2.679-3.213,2.221c-1.973-0.507-1.817-2.289-1.316-3.55c0.736-1.855,1.831-3.632,3.071-5.205
	c1.062-1.343,2.544-2.353,3.84-3.508C238.001,266.446,238.134,266.521,238.266,266.596z"/>
<path fill-rule="evenodd" clip-rule="evenodd" fill="#2E3B5D" d="M72.291,232.69c0.979-3.303,1.763-5.98,2.564-8.653
	c2.032-6.775,3.692-13.691,7.403-19.843c0.236-0.39,0.354-0.927,0.69-1.164c0.575-0.404,1.309-0.891,1.918-0.823
	c0.367,0.041,0.928,1.089,0.88,1.638c-0.172,1.961-0.377,3.956-0.913,5.842c-2.32,8.162-6.656,15.324-11.36,22.285
	C73.365,232.13,73.12,232.194,72.291,232.69z"/>
<path fill-rule="evenodd" clip-rule="evenodd" fill="#2E3B5D" d="M40.753,240.521c1.471-5.124,3.415-9.402,7.466-12.28
	c0.83-0.589,2.491-0.561,3.48-0.139c0.493,0.211,0.75,2.131,0.396,2.978C50.041,235.986,46.099,238.736,40.753,240.521z"/>
<path fill-rule="evenodd" clip-rule="evenodd" fill="#2E3B5D" d="M214.409,272.545c0-1.183-0.126-2.388,0.082-3.533
	c0.057-0.314,1.11-0.448,1.706-0.664c0.113,1.16,0.378,2.333,0.263,3.468c-0.044,0.432-0.962,0.773-1.481,1.156
	C214.788,272.829,214.598,272.688,214.409,272.545z"/>
<path fill-rule="evenodd" clip-rule="evenodd" fill="#2E3B5D" d="M137.702,273.992c0-1.91-0.057-3.399,0.041-4.879
	c0.025-0.373,0.486-0.889,0.858-1.016c0.316-0.108,1.13,0.229,1.142,0.405c0.1,1.562,0.149,3.138-0.001,4.688
	C139.716,273.459,138.679,273.627,137.702,273.992z"/>
<path fill-rule="evenodd" clip-rule="evenodd" fill="#2E3B5D" d="M127.866,270.985c0.514-1.134,0.905-2.813,1.344-2.826
	c1.976-0.058,1.28,1.703,1.221,2.713c-0.068,1.153,0.937,2.991-1.152,3.211C128.931,274.119,128.371,272.132,127.866,270.985z"/>
<path fill-rule="evenodd" clip-rule="evenodd" fill="#2E3B5D" d="M304.141,108.086c0.004-3.448-1.354-5.755-4.323-7.397
	c-4.864-2.691-9.656-5.511-14.472-8.286c-39.592-22.816-79.189-45.619-118.754-68.482c-3.109-1.796-5.856-1.826-8.977,0.002
	c-12.024,7.049-24.134,13.951-36.21,20.91C89.073,63.466,56.75,82.115,24.397,100.712c-2.939,1.69-4.335,3.931-4.326,7.388
	c0.068,25.599,0.037,51.199,0.037,76.799c-0.003,0-0.005,0-0.008,0c0,25.676,0.024,51.351-0.03,77.026
	c-0.007,3.402,1.266,5.712,4.248,7.428c44.562,25.635,89.098,51.311,133.615,77.024c2.991,1.727,5.652,1.553,8.572-0.131
	c44.391-25.622,88.799-51.211,133.229-76.764c3.017-1.735,4.419-4.028,4.416-7.571C304.091,210.637,304.094,159.361,304.141,108.086
	z M101.377,175.444c-0.062-1.523,0.543-2.09,1.998-1.93c0.375,0.042,0.761,0.004,1.142,0.004c38.398,0,76.796,0,115.193,0
	c3.1,0,3.1,0.005,3.101,3.068c0.001,2.057-0.123,4.124,0.032,6.169c0.148,1.94-0.582,2.415-2.451,2.408
	c-18.133-0.066-36.265-0.041-54.397-0.042c-1.371,0-2.742,0-4.114,0c-19.274,0-38.55-0.031-57.825,0.046
	c-2.071,0.009-2.867-0.488-2.701-2.643C101.536,180.177,101.472,177.802,101.377,175.444z M216.502,168.603
	c-37.404,0.001-74.807-0.021-112.21,0.053c-2.32,0.005-2.994-0.609-2.946-2.934c0.129-6.28,0.023-6.282,6.378-6.282
	c18.207,0,36.413,0,54.62,0c19.197-0.001,38.395,0.041,57.589-0.055c2.328-0.012,2.999,0.618,2.941,2.929
	C222.715,168.601,222.814,168.603,216.502,168.603z M216.5,154.574c-37.242,0.006-74.482,0-111.723-0.007
	c-3.373,0-3.373-0.014-3.382-3.322c-0.017-5.844-0.017-5.844,5.885-5.844c18.277,0,36.555,0,54.833,0
	c19.267,0.002,38.535,0.036,57.802-0.044c2.257-0.009,3.035,0.518,2.964,2.916C222.691,154.542,222.811,154.574,216.5,154.574z
	 M222.826,138.848c0.027,1.151-0.326,1.722-1.557,1.622c-0.755-0.061-1.521,0.005-2.284,0.005
	c-38.159,0.001-76.318,0.001-114.478,0.001c-0.902,0-1.804,0-3.095,0c0-3.669-0.045-7.007,0.057-10.34
	c0.013-0.423,0.741-1.034,1.248-1.183c0.702-0.207,1.508-0.06,2.27-0.061c38.235,0,76.47-0.001,114.706-0.001
	c3.114,0,3.118,0,3.12,3.102C222.815,134.278,222.769,136.565,222.826,138.848z M211.625,108.302
	c-15.98-6.966-31.96-13.938-47.973-20.828c-0.902-0.388-2.263-0.392-3.163-0.002c-26.401,11.445-52.771,22.963-79.144,34.472
	c-2.826,1.233-2.825,1.245-4.042-1.54c-0.392-0.897-0.759-1.806-1.28-3.049c5.012-2.182,9.747-4.242,14.479-6.304
	c23.239-10.125,46.483-20.24,69.704-30.409c1.388-0.608,2.505-0.567,3.863,0.026c27.206,11.882,54.422,23.738,81.663,35.542
	c1.895,0.821,2.774,1.671,1.429,3.613c-0.213,0.307-0.368,0.677-0.459,1.042c-0.49,1.944-1.412,2.217-3.29,1.377
	C232.85,117.518,222.23,112.926,211.625,108.302z M35.742,109.061c39.414-22.656,78.789-45.376,118.171-68.086
	c2.043-1.179,4.135-2.287,6.112-3.57c1.484-0.965,2.72-0.827,4.21,0.035c28.018,16.199,56.055,32.358,84.092,48.524
	c13.524,7.798,27.042,15.607,40.592,23.36c1.545,0.884,2.336,1.884,2.332,3.763c-0.047,23.31-0.026,46.622-0.031,69.932
	c0,0.595-0.089,1.188-0.163,2.104c-2.214,0-4.188,0-6.161,0c-12.722,0-25.443-0.042-38.166,0.043
	c-2.021,0.013-2.748-0.416-2.736-2.61c0.09-17.368,0.049-34.737,0.049-52.106c0-0.729,0-1.458,0-2.558
	c1.593,0.625,2.77,1.086,4.236,1.661c2.104-4.813,4.19-9.589,6.406-14.658c-1.146-0.523-2.145-0.998-3.158-1.44
	c-29.314-12.779-58.628-25.563-87.964-38.293c-0.787-0.34-1.964-0.411-2.73-0.079c-29.683,12.879-59.34,25.821-88.999,38.759
	c-0.688,0.3-1.348,0.663-2.271,1.121c2.12,4.861,4.201,9.633,6.34,14.54c1.419-0.51,2.662-0.957,4.161-1.496
	c0.045,1.021,0.105,1.758,0.105,2.494c0.007,17.293-0.034,34.586,0.057,51.878c0.011,2.195-0.581,2.808-2.782,2.793
	c-13.94-0.098-27.882-0.05-41.822-0.05c-0.752,0-1.504,0-2.492,0c-0.053-0.977-0.138-1.787-0.138-2.595
	c-0.003-22.93,0.03-45.86-0.04-68.79C32.946,111.44,33.783,110.188,35.742,109.061z"/>
<g>
	<path fill-rule="evenodd" clip-rule="evenodd" fill="#FFFFFF" d="M212.025,227.337c2.232-3.795,3.036-4.109,8.104-3.174
		c-0.174,0.921-0.313,1.853-0.531,2.766c-1.815,7.545-3.647,15.087-5.469,22.632c-0.109,0.443-0.296,0.914-0.236,1.343
		c0.127,0.924,0.39,1.831,0.598,2.744c0.853-0.354,1.907-0.497,2.524-1.095c3.88-3.759,6.755-8.217,8.729-13.247
		c1.851-4.714,4.017-9.252,7.851-12.707c1.277-1.151,2.766-2.203,4.34-2.866c3.849-1.622,6.457-0.836,9.001,2.355
		c2.174-2.462,3.771-2.831,9.159-1.941c-2.404,9.76-4.805,19.493-7.367,29.899c1.038-0.791,1.527-1.098,1.938-1.485
		c4.936-4.654,8.982-9.856,11.112-16.461c1.688-5.234,5.324-8.976,10.18-11.521c3.1-1.626,6.353-2.034,9.75-1.156
		c3.327,0.861,5.088,3.496,4.488,6.883c-0.726,4.09-3.113,7.211-6.604,9.155c-2.95,1.643-6.243,2.736-9.483,3.76
		c-1.707,0.538-2.326,1.218-2.182,3.012c0.457,5.581,3.976,8.213,9.377,6.802c3.119-0.814,5.734-2.488,7.667-5.075
		c1.411-1.889,2.56-3.978,4.031-5.813c0.48-0.599,1.609-0.676,2.44-0.991c-0.002,0.778,0.292,1.736-0.057,2.304
		c-2.137,3.504-4.148,7.137-6.716,10.313c-4.194,5.187-9.868,6.949-16.388,5.552c-3.848-0.823-6.562-3.07-7.66-7.016
		c-0.4-1.44-0.916-2.848-1.523-4.715c-0.973,1.133-1.663,2.001-2.421,2.805c-1.827,1.937-3.467,4.146-5.584,5.691
		c-2.956,2.159-4.114,4.967-4.88,8.379c-0.943,4.204-2.077,8.458-3.853,12.36c-2.215,4.866-7.945,6.952-12.747,5.344
		c-4.119-1.382-5.751-5.258-3.396-8.896c1.381-2.131,3.336-3.924,5.196-5.698c1.367-1.307,2.883-2.56,4.54-3.444
		c3.679-1.964,4.415-5.301,4.799-9.743c-3.15,3.762-6.646,5.875-11.023,5.232c-5.226-0.766-5.495-5.171-6.115-9.685
		c-1.776,2.124-3.112,4.181-4.895,5.72c-1.715,1.481-3.764,2.909-5.902,3.493c-2.908,0.792-4.34-0.418-5.194-3.356
		c-0.358-1.23-0.564-2.505-0.939-4.216c-1.151,1.509-2.072,2.743-3.02,3.959c-2.1,2.695-4.889,4.034-8.284,4.156
		c-3.673,0.132-5.478-1.076-6.669-4.592c-0.435-1.276-0.703-2.609-1.069-4.003c-2.036,2.082-3.947,4.082-5.906,6.031
		c-2.493,2.479-5.605,2.572-8.752,1.95c-2.928-0.578-4.353-2.356-3.799-5.511c0.542-3.096,1.658-6.144,2.905-9.048
		c1.252-2.922,0.612-5.28-1.251-7.8c-0.365,0.403-0.697,0.674-0.91,1.019c-3.023,4.845-5.801,9.863-9.134,14.482
		c-1.81,2.509-4.309,4.743-6.947,6.371c-3.458,2.134-6.198,0.664-7.212-3.241c-0.285-1.099-0.457-2.229-0.776-3.82
		c-0.984,1.319-1.762,2.375-2.551,3.423c-2.41,3.196-5.598,4.861-9.623,4.775c-2.692-0.058-4.618-1.321-5.682-3.84
		c-1.291-3.055-1.32-6.204-0.829-9.426c1.011-6.611,3.529-12.578,7.62-17.851c0.922-1.188,2.076-2.245,3.275-3.163
		c5.142-3.927,9.288-3.29,13.282,1.945c2.013-3.854,3.088-4.304,8.002-3.197c-2.265,9.751-5.729,19.289-6.214,29.381
		c0.228,0.15,0.458,0.299,0.688,0.45c0.782-0.479,1.723-0.813,2.323-1.46c4.954-5.356,9.176-11.177,11.281-18.299
		c0.361-1.218,0.638-2.273-0.533-3.313c-0.433-0.385-0.578-1.404-0.444-2.05c0.389-1.859,0.963-3.681,1.519-5.5
		c0.125-0.405,0.536-1.091,0.711-1.06c2.349,0.419,4.689,0.901,6.992,1.515c0.166,0.045,0.146,1.258-0.003,1.873
		c-0.139,0.567-0.545,1.078-0.876,1.585c-1.899,2.909-1.85,3.26,0.841,5.385c5.99,4.729,6.725,8.675,2.926,15.192
		c-0.604,1.036-1.035,2.221-1.285,3.391c-0.132,0.622,0.091,1.647,0.534,1.973c0.474,0.35,1.524,0.338,2.094,0.043
		c0.986-0.516,2.057-1.203,2.631-2.111c2.553-4.03,5.277-8.006,7.294-12.304c2.087-4.449,3.945-9.029,7.771-12.204
		c2.013-1.67,4.639-2.923,7.187-3.545C208.087,222.337,210.685,223.967,212.025,227.337z M148.503,234.643
		c-0.083-1.056-0.096-1.514-0.159-1.964c-0.233-1.658-0.296-3.476-2.297-4.071c-1.937-0.576-3.15,0.597-4.197,2.014
		c-3.962,5.35-6.065,11.416-6.466,17.994c-0.093,1.518,1.059,3.109,1.637,4.666c1.506-0.72,3.417-1.078,4.445-2.225
		C145.768,246.255,147.625,240.337,148.503,234.643z M231.933,249.407c0.458,0.938,0.792,2.906,1.926,3.649
		c1.797,1.176,3.122-0.75,4.398-1.882c0.452-0.401,0.852-0.875,1.204-1.367c3.361-4.681,5.227-9.949,5.85-15.63
		c0.142-1.289-0.283-2.721-0.748-3.974c-0.66-1.776-2.271-2.273-3.894-1.303c-0.763,0.458-1.461,1.112-2.016,1.815
		C234.503,235.989,233.078,242.265,231.933,249.407z M196.06,249.963c0.34,0.653,0.779,2.167,1.771,3.086
		c0.439,0.406,2.288-0.066,3.002-0.7c5.966-5.278,8.244-12.231,8.325-19.945c0.013-1.27-1.182-3.094-2.328-3.707
		c-1.672-0.896-3.245,0.516-4.209,1.907C198.769,236.167,196.748,242.405,196.06,249.963z M268.083,240.867
		c5.153-1.889,8.932-4.463,10.921-9.018c0.459-1.053-0.07-2.537-0.144-3.823c-1.206,0.171-2.584,0.021-3.588,0.565
		C270.64,231.099,270.029,236,268.083,240.867z M238.427,266.596c-0.132-0.074-0.266-0.149-0.397-0.223
		c-1.295,1.155-2.778,2.165-3.838,3.508c-1.241,1.573-2.335,3.35-3.072,5.205c-0.5,1.261-0.655,3.043,1.317,3.55
		c1.78,0.458,2.761-0.804,3.212-2.221C236.68,273.176,237.513,269.873,238.427,266.596z"/>
	<path fill-rule="evenodd" clip-rule="evenodd" fill="#FFFFFF" d="M117.658,247.603c2.665,1.031,4.987,1.929,7.463,2.886
		c-0.613,1.571-1.023,2.959-1.671,4.224c-2.949,5.754-3.782,11.945-4.366,18.294c-0.363,3.959-1.522,7.881-2.656,11.721
		c-1.26,4.266-4.528,6.513-8.822,6.812c-3.234,0.227-6.592,0.175-9.747-0.472c-2.094-0.429-4.17-1.853-5.817-3.321
		c-2.074-1.852-3.704-4.202-5.721-6.567c3.091,0,6.047-0.026,9,0.042c0.299,0.007,0.675,0.542,0.863,0.911
		c1.861,3.652,6.792,5.495,10.452,3.676c1.066-0.531,2.301-1.603,2.588-2.662c0.972-3.573,1.552-7.252,2.347-11.219
		c-2.042,0.917-3.603,1.936-5.307,2.326c-7.101,1.632-13.902-1.895-16.881-9.251c-1.635-4.032-2.291-8.472-3.288-12.748
		c-0.299-1.283-0.26-2.644-0.364-3.818c-2.54,2.897-4.872,5.874-7.542,8.51c-2.337,2.304-5.36,3.068-8.671,2.435
		c-3.101-0.593-5.017-2.421-5.779-5.447c-0.479-1.904-0.867-3.831-1.402-6.231c-1.72,2.201-3.116,4.126-4.652,5.931
		c-4.301,5.053-9.866,6.729-16.242,5.542c-5.781-1.074-9.05-5.423-9.162-12.479c-0.133-8.406,3.101-15.436,9.723-20.737
		c3.028-2.425,6.597-3.449,10.462-3.279c5.847,0.258,8.587,4.738,6.063,10.038c-2.154,4.527-6.008,7.189-10.579,8.864
		c-1.851,0.679-3.792,1.142-5.725,1.554c-1.389,0.298-1.762,0.939-1.326,2.253c0.262,0.789,0.357,1.632,0.546,2.448
		c1.044,4.528,3.347,6.13,7.959,5.021c7.368-1.771,11.802-6.854,13.784-13.86c1.611-5.692,2.088-11.712,3.768-17.38
		c1.697-5.729,4.043-11.304,6.535-16.749c1.069-2.336,3.046-4.359,4.934-6.19c2.411-2.339,5.461-2.602,8.509-1.304
		c2.929,1.247,3.406,3.921,3.323,6.693c-0.168,5.619-2.275,10.686-4.755,15.604c-2.972,5.894-6.808,11.194-11.523,15.809
		c-1.925,1.884-2.955,3.92-2.819,6.659c0.101,2.043-0.114,4.11-0.277,6.158c-0.177,2.228,0.293,4.203,2.422,5.225
		c2.09,1.005,4.119,0.074,5.332-1.492c3.531-4.563,7.419-8.77,8.025-15.181c0.935-9.877,3.948-19.293,9.935-27.385
		c2.269-3.066,5.324-5.574,8.16-8.186c0.914-0.843,2.228-1.318,3.432-1.766c8.987-3.341,15.95,0.67,17.4,10.124
		c1.339,8.723-0.939,16.773-5.061,24.378c-0.273,0.503-1.409,0.541-2.146,0.782c-0.053,0.019-0.135-0.06-0.206-0.088
		c-6.36-2.53-6.252-2.487-3.695-8.864c1.493-3.722,2.887-7.544,3.716-11.45c0.479-2.26,0.093-4.868-0.521-7.154
		c-0.902-3.352-3.491-4.411-6.587-2.825c-1.495,0.766-2.844,2.052-3.907,3.384c-4.075,5.102-6.055,11.212-7.962,17.332
		c-3.357,10.771-4.324,21.782-2.871,32.947c0.305,2.341,1.267,4.75,2.493,6.785c2.653,4.406,8.474,4.763,11.535,0.622
		c1.772-2.397,2.962-5.289,4.083-8.091C115.692,254.305,116.546,251.064,117.658,247.603z M72.452,232.692
		c0.829-0.498,1.074-0.563,1.182-0.721c4.704-6.961,9.039-14.123,11.359-22.285c0.536-1.886,0.741-3.881,0.915-5.842
		c0.048-0.549-0.514-1.596-0.881-1.638c-0.609-0.067-1.342,0.419-1.917,0.825c-0.336,0.235-0.456,0.772-0.691,1.162
		c-3.71,6.151-5.371,13.067-7.402,19.843C74.215,226.71,73.43,229.388,72.452,232.692z M40.915,240.521
		c5.345-1.785,9.287-4.535,11.342-9.441c0.354-0.847,0.097-2.767-0.396-2.978c-0.989-0.42-2.651-0.45-3.48,0.141
		C44.329,231.119,42.385,235.397,40.915,240.521z"/>
</g>
<g>
	<path fill="#FFFFFF" d="M133.089,267.903c0-1.365-1.111-2.477-2.477-2.477h-4.475v16.459h1.858v-7.093h2.617
		c1.366,0,2.477-1.1,2.477-2.454V267.903z M131.23,272.339c0,0.396-0.254,0.838-0.618,0.838h-2.617v-6.134h2.617
		c0.364,0,0.618,0.453,0.618,0.86V272.339z"/>
	<path fill="#FFFFFF" d="M138.634,274.176l2.359,7.71h1.965l-2.402-7.95l0.044-0.021c0.905-0.433,1.446-1.276,1.446-2.257v-3.755
		c0-1.365-1.112-2.477-2.478-2.477h-4.453v16.459h1.836v-7.751h1.669L138.634,274.176z M136.953,267.043h2.617
		c0.364,0,0.618,0.453,0.618,0.86v3.755c0,0.406-0.254,0.859-0.618,0.859h-2.617V267.043z"/>
	<path fill="#FFFFFF" d="M151.312,267.903c0-1.379-1.134-2.543-2.477-2.543h-2.217c-1.344,0-2.477,1.164-2.477,2.543v11.439
		c0,1.378,1.133,2.543,2.477,2.543h2.217c1.343,0,2.477-1.165,2.477-2.543V267.903z M149.475,279.343
		c0,0.419-0.285,0.926-0.64,0.926h-2.217c-0.349,0-0.619-0.498-0.619-0.926v-11.439c0-0.429,0.27-0.926,0.619-0.926h2.217
		c0.355,0,0.64,0.507,0.64,0.926V279.343z"/>
	<path fill="#FFFFFF" d="M157.31,280.269h-3.597v1.617h3.816c0.991,0,1.796-0.806,1.796-1.797v-14.662h-1.836v14.662
		c0,0.075-0.065,0.143-0.111,0.16c-0.017,0.006-0.032,0.01-0.041,0.014l-0.026-0.052l0,0L157.31,280.269z"/>
	<polygon fill="#FFFFFF" points="167.45,273.915 167.45,272.298 163.695,272.298 163.695,267.043 168.349,267.043 168.349,265.427 
		161.837,265.427 161.837,281.886 168.438,281.886 168.438,280.269 163.695,280.269 163.695,273.915 	"/>
	<path fill="#FFFFFF" d="M169.85,279.409c0,1.365,1.111,2.477,2.477,2.477h3.598v-1.617h-3.598c-0.354,0-0.617-0.455-0.617-0.859
		v-11.506c0-0.406,0.263-0.86,0.617-0.86h3.817v-1.616h-3.817c-1.365,0-2.477,1.111-2.477,2.477V279.409z"/>
	<polygon fill="#FFFFFF" points="186.288,265.427 178.676,265.427 178.676,267.043 181.574,267.043 181.574,281.886 
		183.412,281.886 183.412,267.043 186.288,267.043 	"/>
	<polygon fill="#FFFFFF" points="199.702,281.886 199.702,265.427 197.844,265.427 197.844,272.298 194.368,272.298 
		194.368,265.427 192.508,265.427 192.508,281.886 194.368,281.886 194.368,273.915 197.844,273.915 197.844,281.886 	"/>
	<path fill="#FFFFFF" d="M209.166,265.427h-1.859v13.916c0,0.428-0.27,0.926-0.617,0.926h-1.999c-0.35,0-0.619-0.498-0.619-0.926
		v-13.916h-1.857v13.916c0,1.378,1.134,2.543,2.477,2.543h1.999c1.342,0,2.477-1.165,2.477-2.543V265.427z"/>
	<path fill="#FFFFFF" d="M218.519,279.409v-4.875c0-0.66-0.332-1.321-0.913-1.812l-0.039-0.034l0.029-0.043
		c0.303-0.427,0.461-0.921,0.461-1.426v-3.316c0-1.361-1.078-2.45-2.456-2.477h-3.969v16.459h5.217v-0.136l0.038-0.014
		C217.864,281.372,218.519,280.437,218.519,279.409z M213.491,267.043h2.089c0.364,0,0.62,0.453,0.62,0.86v3.316
		c0,0.407-0.256,0.859-0.62,0.859h-2.089V267.043z M216.66,279.409c0,0.404-0.264,0.859-0.617,0.859h-2.552v-6.572h2.418
		c0.372,0,0.751,0.423,0.751,0.838V279.409z"/>
</g>
</svg>
